<?xml version="1.0" encoding="utf-8"?>
<!-- Generator: Adobe Illustrator 26.1.0, SVG Export Plug-In . SVG Version: 6.00 Build 0)  -->
<svg version="1.1"
	 id="svg117" xmlns:cc="http://creativecommons.org/ns#" xmlns:dc="http://purl.org/dc/elements/1.1/" xmlns:rdf="http://www.w3.org/1999/02/22-rdf-syntax-ns#" xmlns:svg="http://www.w3.org/2000/svg"
	 xmlns="http://www.w3.org/2000/svg" xmlns:xlink="http://www.w3.org/1999/xlink" x="0px" y="0px" viewBox="0 0 336 210"
	 style="enable-background:new 0 0 336 210;" xml:space="preserve">
<style type="text/css">
	.st0{opacity:0.8;fill:#2A1F2E;}
	.st1{opacity:0.75;}
	.st2{fill:#2A1F2E;}
	.st3{fill:url(#cloud-check_00000067917949460760861260000015002386570288543900_);}
</style>
<desc  id="desc4">Created with sketchtool.</desc>
<g id="Page-1">
	<g id="Send_Download-Completed" transform="translate(-552.000000, -339.000000)">
		<g id="firefox-send_illustrations-03" transform="translate(552.000000, 339.000000)">
			<ellipse id="Oval" class="st0" cx="165.9" cy="168.1" rx="73.5" ry="11.6"/>
			<g id="Group" transform="translate(0.000000, 39.375000)" class="st1">
				<g id="g55" transform="translate(30.187500, 116.812500)">
					<g id="Path" transform="translate(21.000000, 5.250000)">
						<path id="path45" class="st2" d="M1.6,3.3h90c0.7,0,1.3-0.6,1.3-1.3s-0.6-1.3-1.3-1.3h-90c-0.7,0-1.3,0.6-1.3,1.3
							S0.9,3.3,1.6,3.3z"/>
					</g>
					<g id="g50" transform="translate(76.125000, 0.000000)">
						<path id="path48" class="st2" d="M1.7,1.8h22.6c0.4,0,0.7-0.3,0.7-0.7s-0.3-0.7-0.7-0.7H1.7C1.3,0.5,1,0.8,1,1.2
							S1.3,1.8,1.7,1.8z"/>
					</g>
					<g id="Shape" transform="translate(0.000000, 11.812500)">
						<path id="path52" class="st2" d="M0.5,1.9c0-0.4,0.3-0.7,0.7-0.7h3.9c0.4,0,0.7,0.3,0.7,0.7S5.5,2.5,5.1,2.5H1.2
							C0.8,2.5,0.5,2.3,0.5,1.9z M15,1.9c0-0.4,0.3-0.7,0.7-0.7h15.8c0.4,0,0.7,0.3,0.7,0.7s-0.3,0.7-0.7,0.7H15.6
							C15.3,2.5,15,2.3,15,1.9z M42.5,1.9c0-0.4,0.3-0.7,0.7-0.7h1.3c0.4,0,0.7,0.3,0.7,0.7s-0.3,0.7-0.7,0.7h-1.3
							C42.8,2.5,42.5,2.3,42.5,1.9z M49.1,1.9c0-0.4,0.3-0.7,0.7-0.7h3.9c0.4,0,0.7,0.3,0.7,0.7S54,2.5,53.7,2.5h-3.9
							C49.4,2.5,49.1,2.3,49.1,1.9z M63.5,1.9c0-0.4,0.3-0.7,0.7-0.7h15.8c0.4,0,0.7,0.3,0.7,0.7s-0.3,0.7-0.7,0.7H64.2
							C63.8,2.5,63.5,2.3,63.5,1.9z"/>
					</g>
				</g>
				<g id="g69" transform="translate(123.375000, 72.187500)">
					<g id="g59" transform="translate(26.250000, 5.250000)">
						<path id="path57" class="st2" d="M1.8,3.2H147c0.7,0,1.3-0.6,1.3-1.3s-0.6-1.3-1.3-1.3H1.8C1,0.5,0.5,1.1,0.5,1.9
							S1,3.2,1.8,3.2z"/>
					</g>
					<g id="g63" transform="translate(45.937500, 0.000000)">
						<path id="path61" class="st2" d="M1.7,1.9h36.4c0.4,0,0.7-0.3,0.7-0.7s-0.3-0.7-0.7-0.7H1.7C1.3,0.5,1,0.8,1,1.2
							S1.4,1.9,1.7,1.9z"/>
					</g>
					<g id="g67" transform="translate(0.000000, 11.812500)">
						<path id="path65" class="st2" d="M1.2,1.7C1.2,1.3,1.5,1,1.9,1h15.8c0.4,0,0.7,0.3,0.7,0.7S18,2.3,17.6,2.3H1.9
							C1.5,2.3,1.2,2,1.2,1.7z M27.5,1.7c0-0.4,0.3-0.7,0.7-0.7h3.9c0.4,0,0.7,0.3,0.7,0.7s-0.3,0.7-0.7,0.7h-3.9
							C27.7,2.3,27.5,2,27.5,1.7z M36.6,1.7c0-0.4,0.3-0.7,0.7-0.7h1.3c0.4,0,0.7,0.3,0.7,0.7S39,2.3,38.6,2.3h-1.3
							C36.9,2.3,36.6,2,36.6,1.7z M49.8,1.7c0-0.4,0.3-0.7,0.7-0.7h15.7c0.4,0,0.7,0.3,0.7,0.7s-0.3,0.7-0.7,0.7H50.4
							C50.1,2.3,49.8,2,49.8,1.7z M76,1.7C76,1.3,76.3,1,76.7,1h3.9c0.4,0,0.7,0.3,0.7,0.7S81,2.3,80.6,2.3h-3.9
							C76.3,2.3,76,2,76,1.7z M85.2,1.7c0-0.4,0.3-0.7,0.7-0.7h1.3c0.4,0,0.7,0.3,0.7,0.7s-0.3,0.7-0.7,0.7h-1.3
							C85.5,2.3,85.2,2,85.2,1.7z M98.3,1.7C98.3,1.3,98.6,1,99,1h15.8c0.4,0,0.7,0.3,0.7,0.7s-0.3,0.7-0.7,0.7H99
							C98.6,2.3,98.3,2,98.3,1.7z M124.6,1.7c0-0.4,0.3-0.7,0.7-0.7h3.9c0.4,0,0.7,0.3,0.7,0.7s-0.3,0.7-0.7,0.7h-3.9
							C124.9,2.3,124.6,2,124.6,1.7z M133.8,1.7c0-0.4,0.3-0.7,0.7-0.7h1.3c0.4,0,0.7,0.3,0.7,0.7s-0.3,0.7-0.7,0.7h-1.3
							C134.1,2.3,133.8,2,133.8,1.7z M146.9,1.7c0-0.4,0.3-0.7,0.7-0.7h15.8c0.4,0,0.7,0.3,0.7,0.7s-0.3,0.7-0.7,0.7h-15.8
							C147.2,2.3,146.9,2,146.9,1.7z M173.1,1.7c0-0.4,0.3-0.7,0.7-0.7h3.9c0.4,0,0.7,0.3,0.7,0.7s-0.3,0.7-0.7,0.7h-3.9
							C173.4,2.3,173.1,2,173.1,1.7z M182.3,1.7c0-0.4,0.3-0.7,0.7-0.7h1.3c0.4,0,0.7,0.3,0.7,0.7s-0.3,0.7-0.7,0.7H183
							C182.6,2.3,182.3,2,182.3,1.7z M195.5,1.7c0-0.4,0.3-0.7,0.7-0.7h15.8c0.4,0,0.7,0.3,0.7,0.7s-0.3,0.7-0.7,0.7h-15.8
							C195.7,2.3,195.5,2,195.5,1.7z"/>
					</g>
				</g>
				<g id="g81">
					<path id="path71" class="st2" d="M2.1,33.2h33.4c0,0-10.4-23.3,11.7-26.4C67,4.2,74.8,24.5,74.8,24.5s2.3-11.7,14.1-9.5
						c11.6,2.2,20.1,20.9,20.1,20.9h29.1"/>
					<g id="g75" transform="translate(1.312500, 0.000000)">
						<path id="path73" class="st2" d="M137.4,30.4h-8.6c-0.4,0-0.8-0.3-0.8-0.8c0-0.4,0.3-0.8,0.8-0.8h8.6c0.4,0,0.8,0.3,0.8,0.8
							C138.1,30,137.8,30.4,137.4,30.4z M114.9,30.4h-1.5c-0.4,0-0.8-0.3-0.8-0.8c0-0.4,0.3-0.8,0.8-0.8h1.5c0.4,0,0.8,0.3,0.8,0.8
							C115.7,30,115.3,30.4,114.9,30.4z M34.8,29.4h-2.5c-0.4,0-0.8-0.3-0.8-0.8c0-0.4,0.3-0.8,0.8-0.8h1.3c-0.1-0.3-0.2-0.6-0.4-1
							c-0.1-0.4,0.1-0.8,0.5-1c0.4-0.1,0.8,0.1,1,0.5c0.4,1.2,0.7,1.9,0.7,1.9c0.1,0.2,0.1,0.5-0.1,0.7C35.3,29.3,35,29.4,34.8,29.4
							z M19.9,29.4H1.4c-0.4,0-0.8-0.3-0.8-0.8c0-0.4,0.3-0.8,0.8-0.8h18.5c0.4,0,0.8,0.3,0.8,0.8C20.7,29.1,20.3,29.4,19.9,29.4z
							 M107.8,29.4c-0.3,0-0.5-0.1-0.7-0.4c-0.5-0.9-1.3-2.3-2.4-3.9c-0.2-0.4-0.1-0.8,0.2-1.1c0.4-0.2,0.8-0.1,1.1,0.2
							c1.1,1.7,2,3.1,2.5,4c0.2,0.4,0.1,0.8-0.3,1C108,29.3,107.9,29.4,107.8,29.4z M32.5,21.4c-0.4,0-0.7-0.3-0.8-0.7
							c-0.1-0.5-0.1-1.1-0.2-1.6c0-0.4,0.3-0.8,0.7-0.8c0.4,0,0.8,0.3,0.8,0.7c0,0.5,0.1,1,0.2,1.5c0.1,0.4-0.2,0.8-0.7,0.9
							C32.6,21.4,32.6,21.4,32.5,21.4z M72.8,18c-0.3,0-0.5-0.1-0.7-0.4c-0.2-0.4-0.5-0.9-0.7-1.3c-0.2-0.4-0.1-0.8,0.3-1.1
							c0.4-0.2,0.8-0.1,1.1,0.3c0.3,0.5,0.6,0.9,0.8,1.4c0.2,0.4,0.1,0.8-0.3,1C73,18,72.9,18,72.8,18z M97.3,16.1
							c-0.2,0-0.4-0.1-0.5-0.2c-3-2.5-5.9-4.1-8.8-4.6c-2.8-0.5-5.3-0.3-7.4,0.8c-0.4,0.2-0.8,0-1-0.3c-0.2-0.4-0.1-0.8,0.3-1
							c2.4-1.2,5.2-1.5,8.4-0.9c3.1,0.6,6.3,2.3,9.5,5c0.3,0.3,0.4,0.8,0.1,1.1C97.7,16,97.5,16.1,97.3,16.1z M68.4,11.7
							c-0.2,0-0.4-0.1-0.6-0.3c-1-1.2-2.1-2.2-3.2-3.2c-0.3-0.3-0.4-0.8-0.1-1.1s0.8-0.4,1.1-0.1c1.2,1,2.3,2.1,3.4,3.3
							c0.3,0.3,0.2,0.8-0.1,1.1C68.7,11.6,68.6,11.7,68.4,11.7z M36.6,7.2c-0.2,0-0.4-0.1-0.6-0.2c-0.3-0.3-0.3-0.8,0.1-1.1
							c2.5-2.2,5.9-3.7,10.3-4.3c2.7-0.4,5.3-0.3,7.8,0.1c0.4,0.1,0.7,0.5,0.6,0.9c-0.1,0.4-0.5,0.7-0.9,0.6
							c-2.3-0.4-4.8-0.4-7.4-0.1C42.5,3.7,39.3,5,37.1,7C36.9,7.1,36.7,7.2,36.6,7.2z"/>
					</g>
					<g id="g79" transform="translate(0.000000, 32.812500)">
						<path id="path77" class="st2" d="M139.6,3.5H2.1c-0.9,0-1.5-0.7-1.5-1.5s0.7-1.5,1.5-1.5h137.5c0.9,0,1.5,0.7,1.5,1.5
							S140.5,3.5,139.6,3.5z"/>
					</g>
				</g>
				<g id="g93" transform="translate(217.875000, 1.312500)">
					<path id="path83" class="st2" d="M2,19.4h18.6c0,0-5.8-13,6.5-14.7c11-1.5,15.4,9.8,15.4,9.8s1.3-6.5,7.9-5.3
						c6.5,1.2,11.2,11.6,11.2,11.6h16.2"/>
					<g id="g87" transform="translate(1.312500, 0.000000)">
						<path id="path85" class="st2" d="M19.9,17.3H1.3c-0.4,0-0.8-0.3-0.8-0.8s0.3-0.8,0.8-0.8h18.6c0.4,0,0.8,0.3,0.8,0.8
							S20.3,17.3,19.9,17.3z M77.2,17h-0.7c-0.4,0-0.8-0.3-0.8-0.8c0-0.4,0.3-0.8,0.8-0.8h0.7c0.4,0,0.8,0.3,0.8,0.8
							C77.9,16.7,77.6,17,77.2,17z M70.3,17h-4.6c-0.4,0-0.8-0.3-0.8-0.8c0-0.4,0.3-0.8,0.8-0.8h4.6c0.4,0,0.8,0.3,0.8,0.8
							C71,16.7,70.7,17,70.3,17z M41.9,12.4c-0.3,0-0.6-0.2-0.7-0.5L41,11.6c-0.2-0.4,0-0.8,0.3-1c0.7-2.2,2.8-5.2,6.8-5.2
							c0.6,0,1.1,0.1,1.7,0.2c2.3,0.4,4.6,1.8,6.9,4c0.3,0.3,0.3,0.8,0,1.1c-0.3,0.3-0.8,0.3-1.1,0c-2.1-2-4.1-3.2-6.1-3.6
							c-0.5-0.1-1-0.1-1.5-0.1c-4.5,0-5.5,4.6-5.5,4.8C42.5,12.1,42.2,12.4,41.9,12.4z M20.3,5.5c-0.2,0-0.4-0.1-0.5-0.2
							c-0.3-0.3-0.4-0.8-0.1-1.1c1-1.2,2.5-2.1,4.3-2.7c0.4-0.1,0.8,0.1,1,0.5s-0.1,0.8-0.5,1c-1.5,0.5-2.7,1.2-3.5,2.2
							C20.7,5.4,20.5,5.5,20.3,5.5z M31.8,2.9c-0.1,0-0.1,0-0.2,0c-0.5-0.1-0.9-0.2-1.4-0.3c-0.4-0.1-0.7-0.5-0.7-0.9
							C29.6,1.3,30,1,30.4,1C31,1.1,31.5,1.2,32,1.4c0.4,0.1,0.7,0.5,0.6,0.9C32.5,2.6,32.2,2.9,31.8,2.9z"/>
					</g>
					<g id="g91" transform="translate(0.000000, 18.375000)">
						<path id="path89" class="st2" d="M79.1,4.1H2.4c-0.9,0-1.5-0.7-1.5-1.5S1.5,1,2.4,1h76.7c0.9,0,1.5,0.7,1.5,1.5
							S80,4.1,79.1,4.1z"/>
					</g>
				</g>
			</g>
			
				<linearGradient id="cloud-check_00000177460065011540426350000006672463363856224689_" gradientUnits="userSpaceOnUse" x1="91.3948" y1="105" x2="240.1205" y2="105">
				<stop  offset="5.394327e-02" style="stop-color:#734C7C"/>
				<stop  offset="0.9854" style="stop-color:#F97B26"/>
			</linearGradient>
			<path id="cloud-check" style="fill:url(#cloud-check_00000177460065011540426350000006672463363856224689_);" d="M240.1,110.3
				c0,9.8-3.7,19.3-10.2,26.6c-5.4,5.7-12.5,9.3-20.3,10.3c1.4-5.4,1.7-11,0.8-16.5c2.9-0.8,5.5-2.3,7.7-4.5
				c3.9-4.3,6.1-10,6.1-15.9c0-14.7-11.9-26.5-26.6-26.6c-0.9,0-5.4,0.6-8.1,0.9c-1.2,0.2-2.4-0.6-2.8-1.8l-1.1-3.2
				c-3.9-12.1-14.6-20.9-27.2-22.4c-17.4-1.8-33.1,10.8-34.9,28.2c-0.4,3.6-0.1,7.2,0.7,10.8l1.1,4.9c0.3,1.4-0.5,2.7-1.8,3.1
				l-4.8,1.4c-6.7,2-11.4,8.1-11.4,15.1c0,2.4,0.8,4.7,2.2,6.5c2.5,2.6,5.9,4.1,9.5,4.1h7.3c-0.7,5.3-0.4,10.7,1,15.9H119
				c-8.8,0.1-17.1-3.9-22.5-10.8c-3.3-4.6-5.1-10.1-5.1-15.7c0-11.5,6.1-22,16.1-27.6c-0.1-1.4-0.2-2.8-0.2-4.3
				c0-26.4,21.4-47.8,47.8-47.8c18.2,0,34.8,10.3,42.8,26.6C221.3,68,240.1,87,240.1,110.3L240.1,110.3z M200.3,136.9
				c0,17.6-14.3,31.9-31.9,31.9s-31.9-14.3-31.9-31.9s14.3-31.9,31.9-31.9l0,0C186,105,200.3,119.3,200.3,136.9z M185.1,125l-2.7-2
				c-0.6-0.4-1.5-0.4-2,0.1l-16.7,15.7l-9.4-4.5c-0.7-0.3-1.5-0.1-2,0.5l-2.3,2.9c-0.4,0.6-0.4,1.5,0.1,2l11.9,11.9
				c1.7,1.8,4.4,1.9,6.2,0.2c0.2-0.2,0.5-0.5,0.7-0.8l16.5-24.3C185.8,126.3,185.7,125.4,185.1,125L185.1,125z"/>
		</g>
	</g>
</g>
</svg>
