<?xml version="1.0" encoding="utf-8"?>
<!-- Generator: Adobe Illustrator 26.1.0, SVG Export Plug-In . SVG Version: 6.00 Build 0)  -->
<svg version="1.1"
	 id="svg114" xmlns:cc="http://creativecommons.org/ns#" xmlns:dc="http://purl.org/dc/elements/1.1/" xmlns:rdf="http://www.w3.org/1999/02/22-rdf-syntax-ns#" xmlns:svg="http://www.w3.org/2000/svg"
	 xmlns="http://www.w3.org/2000/svg" xmlns:xlink="http://www.w3.org/1999/xlink" x="0px" y="0px" viewBox="0 0 356 210"
	 style="enable-background:new 0 0 356 210;" xml:space="preserve">
<style type="text/css">
	.st0{opacity:0.75;}
	.st1{fill:#2A1F2E;}
	.st2{opacity:0.8;fill:#2A1F2E;}
	.st3{fill:url(#cloud-alert_00000004529090307597885470000005460991565956615074_);}
</style>
<desc  id="desc4">Created with sketchtool.</desc>
<g id="Page-1">
	<g id="Send_Went_Wrong" transform="translate(-542.000000, -304.000000)">
		<g id="firefox-send_illustrations-02" transform="translate(541.986755, 304.000000)">
			<g id="Group" transform="translate(0.000000, 41.721854)" class="st0">
				<g id="g54" transform="translate(31.986755, 123.774834)">
					<g id="Path" transform="translate(22.251656, 5.562914)">
						<path id="path44" class="st1" d="M1.7,3.4H97c0.8,0,1.4-0.6,1.4-1.4S97.8,0.6,97,0.6H1.7C0.9,0.6,0.3,1.2,0.3,2
							S0.9,3.4,1.7,3.4z"/>
					</g>
					<g id="g49" transform="translate(80.662252, 0.000000)">
						<path id="path47" class="st1" d="M1.8,1.9h23.9c0.4,0,0.7-0.3,0.7-0.7s-0.3-0.7-0.7-0.7H1.8c-0.4,0-0.7,0.3-0.7,0.7
							S1.5,1.9,1.8,1.9z"/>
					</g>
					<g id="Shape" transform="translate(0.000000, 12.516556)">
						<path id="path51" class="st1" d="M0.6,1.9c0-0.4,0.3-0.7,0.7-0.7h4.2c0.4,0,0.7,0.3,0.7,0.7S5.9,2.6,5.5,2.6H1.3
							C0.9,2.6,0.6,2.3,0.6,1.9z M15.9,1.9c0-0.4,0.3-0.7,0.7-0.7h16.7c0.4,0,0.7,0.3,0.7,0.7s-0.3,0.7-0.7,0.7H16.6
							C16.2,2.6,15.9,2.3,15.9,1.9z M45.1,1.9c0-0.4,0.3-0.7,0.7-0.7h1.4c0.4,0,0.7,0.3,0.7,0.7s-0.3,0.7-0.7,0.7h-1.4
							C45.4,2.6,45.1,2.3,45.1,1.9z M52.1,1.9c0-0.4,0.3-0.7,0.7-0.7h4.2c0.4,0,0.7,0.3,0.7,0.7s-0.3,0.7-0.7,0.7h-4.2
							C52.4,2.6,52.1,2.3,52.1,1.9z M67.4,1.9c0-0.4,0.3-0.7,0.7-0.7h16.7c0.4,0,0.7,0.3,0.7,0.7s-0.3,0.7-0.7,0.7H68
							C67.7,2.6,67.4,2.3,67.4,1.9z"/>
					</g>
				</g>
				<g id="g68" transform="translate(130.728477, 76.490066)">
					<g id="g58" transform="translate(27.814570, 5.562914)">
						<path id="path56" class="st1" d="M1.9,3.3h153.9c0.8,0,1.4-0.6,1.4-1.4s-0.6-1.4-1.4-1.4H1.9c-0.8,0-1.4,0.6-1.4,1.4
							S1.2,3.3,1.9,3.3z"/>
					</g>
					<g id="g62" transform="translate(48.675497, 0.000000)">
						<path id="path60" class="st1" d="M1.9,1.9h38.6c0.4,0,0.7-0.3,0.7-0.7s-0.3-0.7-0.7-0.7H1.9c-0.4,0-0.7,0.3-0.7,0.7
							S1.5,1.9,1.9,1.9z"/>
					</g>
					<g id="g66" transform="translate(0.000000, 12.516556)">
						<path id="path64" class="st1" d="M1.3,1.7C1.3,1.3,1.6,1,2,1h16.7c0.4,0,0.7,0.3,0.7,0.7s-0.3,0.7-0.7,0.7H2
							C1.6,2.4,1.3,2.1,1.3,1.7z M29.1,1.7c0-0.4,0.3-0.7,0.7-0.7H34c0.4,0,0.7,0.3,0.7,0.7S34.4,2.4,34,2.4h-4.2
							C29.5,2.4,29.1,2.1,29.1,1.7z M38.9,1.7c0-0.4,0.3-0.7,0.7-0.7H41c0.4,0,0.7,0.3,0.7,0.7S41.3,2.4,41,2.4h-1.4
							C39.2,2.4,38.9,2.1,38.9,1.7z M52.8,1.7c0-0.4,0.3-0.7,0.7-0.7h16.7c0.4,0,0.7,0.3,0.7,0.7s-0.3,0.7-0.7,0.7H53.5
							C53.1,2.4,52.8,2.1,52.8,1.7z M80.6,1.7c0-0.4,0.3-0.7,0.7-0.7h4.2c0.4,0,0.7,0.3,0.7,0.7s-0.3,0.7-0.7,0.7h-4.2
							C80.9,2.4,80.6,2.1,80.6,1.7z M90.3,1.7C90.3,1.3,90.6,1,91,1h1.4c0.4,0,0.7,0.3,0.7,0.7s-0.3,0.7-0.7,0.7H91
							C90.6,2.4,90.3,2.1,90.3,1.7z M104.2,1.7c0-0.4,0.3-0.7,0.7-0.7h16.7c0.4,0,0.7,0.3,0.7,0.7s-0.3,0.7-0.7,0.7h-16.7
							C104.6,2.4,104.2,2.1,104.2,1.7z M132,1.7c0-0.4,0.3-0.7,0.7-0.7h4.2c0.4,0,0.7,0.3,0.7,0.7s-0.3,0.7-0.7,0.7h-4.2
							C132.4,2.4,132,2.1,132,1.7z M141.8,1.7c0-0.4,0.3-0.7,0.7-0.7h1.4c0.4,0,0.7,0.3,0.7,0.7s-0.3,0.7-0.7,0.7h-1.4
							C142.1,2.4,141.8,2.1,141.8,1.7z M155.7,1.7c0-0.4,0.3-0.7,0.7-0.7h16.7c0.4,0,0.7,0.3,0.7,0.7s-0.3,0.7-0.7,0.7h-16.7
							C156,2.4,155.7,2.1,155.7,1.7z M183.5,1.7c0-0.4,0.3-0.7,0.7-0.7h4.2c0.4,0,0.7,0.3,0.7,0.7s-0.3,0.7-0.7,0.7h-4.2
							C183.8,2.4,183.5,2.1,183.5,1.7z M193.2,1.7c0-0.4,0.3-0.7,0.7-0.7h1.4c0.4,0,0.7,0.3,0.7,0.7s-0.3,0.7-0.7,0.7h-1.4
							C193.6,2.4,193.2,2.1,193.2,1.7z M207.1,1.7c0-0.4,0.3-0.7,0.7-0.7h16.7c0.4,0,0.7,0.3,0.7,0.7s-0.3,0.7-0.7,0.7h-16.7
							C207.5,2.4,207.1,2.1,207.1,1.7z"/>
					</g>
				</g>
				<g id="g80">
					<path id="path70" class="st1" d="M2.3,35.1h35.4c0,0-11.1-24.7,12.4-27.9C71,4.4,79.3,25.9,79.3,25.9s2.5-12.4,14.9-10
						c12.3,2.3,21.3,22.1,21.3,22.1h30.8"/>
					<g id="g74" transform="translate(1.390728, 0.000000)">
						<path id="path72" class="st1" d="M145.6,32.1h-9.1c-0.5,0-0.8-0.4-0.8-0.8s0.4-0.8,0.8-0.8h9.1c0.5,0,0.8,0.4,0.8,0.8
							S146.1,32.1,145.6,32.1z M121.8,32.1h-1.6c-0.5,0-0.8-0.4-0.8-0.8s0.4-0.8,0.8-0.8h1.6c0.5,0,0.8,0.4,0.8,0.8
							S122.2,32.1,121.8,32.1z M36.9,31.1h-2.6c-0.5,0-0.8-0.4-0.8-0.8s0.4-0.8,0.8-0.8h1.4c-0.1-0.3-0.2-0.7-0.4-1.1
							c-0.1-0.4,0.1-0.9,0.5-1c0.4-0.1,0.9,0.1,1,0.5c0.4,1.3,0.8,2,0.8,2.1c0.1,0.3,0.1,0.5-0.1,0.8C37.4,31,37.2,31.1,36.9,31.1z
							 M21.2,31.1H1.5c-0.5,0-0.8-0.4-0.8-0.8s0.4-0.8,0.8-0.8h19.6c0.5,0,0.8,0.4,0.8,0.8C22,30.7,21.6,31.1,21.2,31.1z M114.2,31
							c-0.3,0-0.6-0.2-0.7-0.4c-0.5-0.9-1.4-2.4-2.5-4.1c-0.3-0.4-0.2-0.9,0.2-1.1c0.4-0.3,0.9-0.2,1.1,0.2c1.2,1.8,2.1,3.3,2.6,4.2
							c0.2,0.4,0.1,0.9-0.3,1.1C114.5,31,114.4,31,114.2,31z M34.5,22.6c-0.4,0-0.8-0.3-0.8-0.7c-0.1-0.5-0.1-1.1-0.2-1.7
							c0-0.4,0.3-0.8,0.8-0.9c0.5,0,0.8,0.3,0.9,0.8c0,0.5,0.1,1.1,0.2,1.6c0.1,0.4-0.3,0.9-0.7,0.9C34.6,22.6,34.6,22.6,34.5,22.6z
							 M77.2,19c-0.3,0-0.6-0.2-0.7-0.4c-0.2-0.4-0.5-0.9-0.8-1.4c-0.2-0.4-0.1-0.9,0.3-1.1s0.9-0.1,1.1,0.3c0.3,0.5,0.6,1,0.8,1.5
							c0.2,0.4,0.1,0.9-0.3,1.1C77.4,19,77.3,19,77.2,19z M103.1,16.9c-0.2,0-0.4-0.1-0.5-0.2c-3.1-2.7-6.2-4.3-9.3-4.9
							c-3-0.6-5.6-0.3-7.8,0.8c-0.4,0.2-0.9,0-1.1-0.3c-0.2-0.4-0.1-0.9,0.3-1.1c2.5-1.3,5.5-1.6,8.9-1c3.3,0.6,6.7,2.4,10.1,5.3
							c0.3,0.3,0.4,0.8,0.1,1.2C103.6,16.8,103.4,16.9,103.1,16.9z M72.5,12.3c-0.2,0-0.5-0.1-0.6-0.3c-1.1-1.2-2.2-2.4-3.4-3.4
							c-0.3-0.3-0.4-0.8-0.1-1.2s0.8-0.4,1.2-0.1c1.3,1,2.5,2.2,3.6,3.5c0.3,0.3,0.3,0.9-0.1,1.2C72.9,12.2,72.7,12.3,72.5,12.3z
							 M38.8,7.5c-0.2,0-0.4-0.1-0.6-0.3c-0.3-0.3-0.3-0.8,0.1-1.2c2.6-2.4,6.3-3.9,11-4.5c2.9-0.4,5.6-0.3,8.3,0.1
							c0.4,0.1,0.7,0.5,0.7,0.9c-0.1,0.4-0.5,0.8-0.9,0.7c-2.5-0.4-5.1-0.5-7.8-0.1c-4.3,0.6-7.7,2-10.1,4.1
							C39.2,7.4,39,7.5,38.8,7.5z"/>
					</g>
					<g id="g78" transform="translate(0.000000, 34.768212)">
						<path id="path76" class="st1" d="M148,3.6H2.3C1.4,3.6,0.7,2.9,0.7,2s0.7-1.6,1.6-1.6H148c0.9,0,1.6,0.7,1.6,1.6
							C149.6,2.9,148.9,3.6,148,3.6z"/>
					</g>
				</g>
				<g id="g92" transform="translate(230.860927, 1.390728)">
					<path id="path82" class="st1" d="M2.2,20.4h19.7c0,0-6.2-13.8,6.9-15.6c11.7-1.6,16.3,10.4,16.3,10.4s1.4-6.9,8.3-5.6
						C60.4,11,65.4,22,65.4,22h17.2"/>
					<g id="g86" transform="translate(1.390728, 0.000000)">
						<path id="path84" class="st1" d="M21.1,18.2H1.4c-0.5,0-0.8-0.4-0.8-0.8s0.4-0.8,0.8-0.8h19.7c0.5,0,0.8,0.4,0.8,0.8
							S21.6,18.2,21.1,18.2z M81.8,18h-0.8c-0.5,0-0.8-0.4-0.8-0.8c0-0.5,0.4-0.8,0.8-0.8h0.8c0.5,0,0.8,0.4,0.8,0.8
							C82.7,17.6,82.3,18,81.8,18z M74.5,18h-4.9c-0.5,0-0.8-0.4-0.8-0.8c0-0.5,0.4-0.8,0.8-0.8h4.9c0.5,0,0.8,0.4,0.8,0.8
							C75.3,17.6,75,18,74.5,18z M44.4,13c-0.3,0-0.6-0.2-0.8-0.5l-0.1-0.3c-0.2-0.4,0-0.8,0.3-1c0.8-2.3,2.9-5.6,7.2-5.6
							c0.6,0,1.2,0.1,1.8,0.2c2.4,0.5,4.9,1.9,7.3,4.2c0.3,0.3,0.3,0.8,0,1.2c-0.3,0.3-0.8,0.3-1.2,0c-2.2-2.1-4.4-3.4-6.5-3.8
							C52,7.3,51.5,7.3,51,7.3c-4.7,0-5.8,4.9-5.8,5.1C45.1,12.8,44.8,13,44.4,13z M21.6,5.7c-0.2,0-0.4-0.1-0.5-0.2
							c-0.3-0.3-0.4-0.8-0.1-1.2c1.1-1.3,2.6-2.2,4.5-2.8c0.4-0.1,0.9,0.1,1,0.5s-0.1,0.9-0.5,1c-1.6,0.5-2.9,1.3-3.7,2.3
							C22,5.6,21.8,5.7,21.6,5.7z M33.8,2.9c-0.1,0-0.1,0-0.2,0c-0.5-0.1-1-0.2-1.5-0.3c-0.4-0.1-0.8-0.5-0.7-0.9s0.5-0.7,0.9-0.7
							c0.6,0.1,1.2,0.2,1.7,0.3c0.4,0.1,0.7,0.6,0.6,1C34.5,2.7,34.1,2.9,33.8,2.9z"/>
					</g>
					<g id="g90" transform="translate(0.000000, 19.470199)">
						<path id="path88" class="st1" d="M83.9,4.2H2.6c-0.9,0-1.6-0.7-1.6-1.6S1.7,1,2.6,1h81.3c0.9,0,1.6,0.7,1.6,1.6
							S84.8,4.2,83.9,4.2z"/>
					</g>
				</g>
			</g>
			<ellipse id="Oval" class="st2" cx="175.9" cy="170.9" rx="73.5" ry="11.6"/>
		</g>
	</g>
</g>
<linearGradient id="cloud-alert_00000074437122023112821020000010023134707549136828_" gradientUnits="userSpaceOnUse" x1="97.2655" y1="105" x2="254.5436" y2="105">
	<stop  offset="5.394327e-02" style="stop-color:#734C7C"/>
	<stop  offset="0.9854" style="stop-color:#F97B26"/>
</linearGradient>
<path id="cloud-alert" style="fill:url(#cloud-alert_00000074437122023112821020000010023134707549136828_);" d="M254.5,110.6
	c0,10.4-3.9,20.4-10.8,28.1c-5.7,6-13.3,9.8-21.5,10.9c1.5-5.7,1.8-11.6,0.8-17.4c3.1-0.8,5.9-2.5,8.1-4.7
	c4.2-4.6,6.5-10.6,6.5-16.8c0-15.5-12.6-28.1-28.1-28.1c-0.9,0-5.7,0.6-8.6,1c-1.3,0.2-2.6-0.6-3-1.9l-1.1-3.3
	c-4.2-12.8-15.4-22.1-28.8-23.7c-18.4-2-35,11.4-36.9,29.9c-0.4,3.8-0.2,7.7,0.7,11.4l1.2,5.1c0.3,1.4-0.5,2.9-1.9,3.3l-5,1.5
	c-7.1,2.1-12,8.6-12,16c0,2.5,0.8,4.9,2.3,6.9c2.6,2.8,6.2,4.4,10,4.3h7.7c-0.8,5.6-0.4,11.4,1.1,16.9h-8.8
	c-9.3,0.1-18-4.2-23.8-11.4c-3.5-4.8-5.4-10.7-5.4-16.7c0-12.1,6.5-23.3,17.1-29.2c-0.1-1.5-0.2-3-0.2-4.5
	c0-27.9,22.6-50.5,50.5-50.6c19.2,0,36.8,10.9,45.3,28.1C234.6,65.9,254.5,85.9,254.5,110.6L254.5,110.6z M212.4,138.7
	c0,18.6-15.1,33.7-33.7,33.7S145,157.3,145,138.7s15.1-33.7,33.7-33.7h0C197.3,105,212.4,120.1,212.4,138.7z M184.3,152.7
	c0-1.6-1.3-2.8-2.8-2.8h-5.6c-1.6,0-2.8,1.3-2.8,2.8v5.6c0,1.6,1.3,2.8,2.8,2.8c0,0,0,0,0,0h5.6c1.6,0,2.8-1.3,2.8-2.8c0,0,0,0,0,0
	V152.7z M184.3,119c0-1.5-1.3-2.8-2.8-2.8h-5.6c-1.5,0-2.8,1.3-2.8,2.8v11.2c0,1.9,0.3,3.7,0.8,5.5l2.2,7.2c0.3,0.8,1,1.3,1.8,1.3
	h1.4c0.8,0,1.5-0.6,1.8-1.3l2.2-7.2c0.5-1.8,0.8-3.6,0.8-5.5L184.3,119z"/>
</svg>
