<?xml version="1.0" encoding="utf-8"?>
<!-- Generator: Adobe Illustrator 26.1.0, SVG Export Plug-In . SVG Version: 6.00 Build 0)  -->
<svg version="1.1"
	 id="svg898" xmlns:cc="http://creativecommons.org/ns#" xmlns:dc="http://purl.org/dc/elements/1.1/" xmlns:rdf="http://www.w3.org/1999/02/22-rdf-syntax-ns#" xmlns:svg="http://www.w3.org/2000/svg"
	 xmlns="http://www.w3.org/2000/svg" xmlns:xlink="http://www.w3.org/1999/xlink" x="0px" y="0px" viewBox="0 0 181.4 181.4"
	 style="enable-background:new 0 0 181.4 181.4;" xml:space="preserve">
<style type="text/css">
	.st0{fill:#FB6A26;}
	.st1{fill:#FFFFFF;}
</style>
<g>
	<g>
		<path class="st0" d="M18.9,142.2L18.9,142.2c-2.1-1.5-4-3.3-5.8-5.1l0,0c-2.1-2.1-3.9-4.4-5.5-6.9l-0.7-1
			c-1.4-2.1-2.5-4.4-3.3-6.8L3.1,121c-0.8-2.2-1.4-4.4-1.8-6.6l0,0c-0.7-3.4-0.9-6.9-0.7-10.4l0-0.3c0.1-2.5,0.5-4.9,1-7.3l0,0
			c0.5-2.1,1.2-4.2,2-6.2l0.9-2.1c0.5-1.2,1.1-2.3,1.7-3.4l0,0c0.2-0.3,0.3-0.5,0.5-0.8l0.1-0.1c0.2-0.3,0.4-0.6,0.6-0.9
			c3.6-5.5,8.3-10.2,13.8-13.9l0.4-0.2L24,84.8l-2.2,3c-1,1.4-1.9,2.9-2.7,4.5l0,0l0,0c-1.4,2.9-2.4,5.9-3.1,9l0,0.1
			c-0.5,2.3-0.6,4.6-0.5,6.9v0c0.1,1.3,0.3,2.5,0.7,3.8l0.5,1.8c0.7,2.4,1.7,4.7,2.9,6.9l0.4,0.6c1.1,1.9,2.4,3.6,4,5.2l0.6,0.6
			c0.5,0.5,1,0.9,1.5,1.4l0,0c1.2,1,2.5,1.9,3.9,2.7l0.8,0.4c1.1,0.6,2.3,1.2,3.4,1.6l3.6,1.3l-11,12.2l0,0
			C24,145.5,21.4,144,18.9,142.2z"/>
		<path id="C" class="st0" d="M121.8,94.6c-1.6,3.5-2.4,7.4-2.4,11.5s0.8,8,2.4,11.5c1.6,3.5,3.7,6.7,6.4,9.4
			c2.7,2.7,5.8,4.8,9.4,6.4c3.5,1.5,7.4,2.4,11.5,2.4l17.2,11.4c-5.3,2.4-11.1,3.5-17.2,3.5c-6.2,0-11.9-1.2-17.3-3.5
			c-5.4-2.4-10.1-5.6-14.2-9.6c-4-4-7.3-8.8-9.6-14.2c-2.4-5.4-3.5-11.1-3.5-17.2c0-6.2,1.2-12,3.5-17.3c2.4-5.4,5.6-10.1,9.6-14.1
			c4-4,8.7-7.2,14.2-9.5c5.4-2.4,11.2-3.5,17.3-3.5c6.2,0,11.9,1.2,17.2,3.5c5.3,2.4,10.1,5.5,14.2,9.6L170,85.2
			c-5.9-5.8-12.9-8.5-20.9-8.5c-4.1,0-8,0.8-11.6,2.4c-3.6,1.5-6.8,3.6-9.4,6.4C125.5,87.8,123.4,90.9,121.8,94.6z"/>
		<path class="st1" d="M138.4,53.3L138.4,53.3c-1.5-2.7-3.1-5.3-5-7.8c-0.8-1-1.6-2.1-2.4-3c0,0,0,0,0,0c-1.6-1.9-3.2-3.7-5.8-5.9
			c-1.1-1-2.6-2.1-3.5-2.7l0,0c-2-1.5-4.1-2.7-6.3-3.8c-2.2-1.1-4.7-2.1-7-2.8l0,0c-2.6-0.8-5.8-1.3-8.5-1.5c-2-0.2-4.6-0.2-6.6-0.1
			l0,0c-3.1,0.2-6.6,0.7-9.6,1.6l0,0c-2.6,0.6-6.8,2.5-8.9,3.6l-1.1,0.6c-0.3,0.2-0.6,0.4-0.9,0.6c-2.5,1.6-5.5,3.9-7.7,5.9
			l-0.3,0.3c-2.5,2.5-4.8,5.2-6.7,8.2c-0.5,0.7-0.8,1.5-1.1,2.1c-0.9,1.6-1.6,3.2-2.3,4.9c-1,2.3-1.7,4.7-2.2,7.2l-0.4,2.2L48,62.4
			c-2.5-0.2-5.1-0.1-7.6,0.1h0c-2.4,0.2-4.8,0.7-7.1,1.3h0c-1.5,0.4-2.9,1-4.3,1.6l-2.6,1.2l2.3,15.9c1.2-0.8,2.5-1.5,3.8-2.1
			l1.5-0.7c1.7-0.8,3.4-1.4,5.3-1.8c1.9-0.5,3.9-0.7,5.9-0.7h0c1.9,0,3.8,0.2,5.7,0.5l1.2,0.2l0.7,2.7c0.8,2.9,1.8,5.7,3.2,8.4v0
			c1.2,2.6,2.7,5,4.5,7.2l0,0c1.7,2.2,3.5,4.2,5.5,6l0,0c1.4,1.3,2.9,2.4,4.4,3.5l0.5,0.4c0.3,0.2,0.8,0.5,1.2,0.8
			c0.9,0.6,1.9,1,3,1.3c0.3,0.1,0.6,0.1,0.8,0.1v0c0.1,2.4,0.4,4.8,0.7,7.2l0.3,1.9c0.4,2.4,0.9,4.8,1.6,7.1l0.3,1.2
			c0.7,2.4,1.5,4.7,2.4,6.9l1.1,2.7l-38.5,0l-10.8,13c5.2,1,9.2,1.4,14.4,1.7c5.7,0.4,11.3,0.5,17,0.5l52.8,0l1,0
			c-4.5-2.9-9.3-6.9-12.6-11.1c0,0-1.6-2.2-2.4-3.5c-2.9-4.8-5.3-9.9-7-15.3c0,0-1.5-4.3-2-10.6c-0.1-1.3-0.1-3.3-0.1-4.8
			c0-1.4,0.1-2.8,0.2-4.2l0,0c0.1-1.3,0.3-2.6,0.6-3.9l1-4.7c0.5-2.1,1.1-4.2,1.9-6.3l0,0c0.5-1.2,1-2.4,1.5-3.5v0
			c0.8-1.5,1.6-3,2.5-4.5l0.2-0.3c1-1.6,2.1-3.2,3.3-4.8h0c0.8-1,1.6-2,2.5-3l1-1.1c1.6-1.8,3.4-3.5,5.3-5l0.8-0.6
			c1.5-1.2,3.1-2.4,4.8-3.4l0.3-0.2c1.1-0.7,2.3-1.3,3.5-1.9l0.5-0.2c1.1-0.5,2.2-1,3.3-1.4l1.3-0.5l-1.3-0.4l-1.5-0.5l-17.3-5.5v0
			c-0.3,0.2-0.6,0.4-1,0.6l-3.1,2c-1,0.7-2,1.4-2.9,2.2v0c-0.7,0.6-1.4,1.2-2.1,1.8l-1.2,1.1c-1.7,1.5-3.3,3.1-4.8,4.8l-0.5,0.5
			c-0.9,1-1.7,1.9-2.5,2.9l-0.8,1c-1.1,1.4-2.1,2.8-3,4.3L86.2,72c-1,1.5-1.8,3.1-2.6,4.8l-0.7,1.3c-0.5,1-1,2.1-1.4,3.1l0,0
			c-0.4,0.9-0.7,1.9-1,2.8l-1.4,4.4l-0.5,2l-0.4,1.7c0,0-0.4-0.3-1-0.9c-2-1.7-6.9-6.6-9.2-14.7c-0.4-1.6-0.7-3.4-0.8-5.3
			c-0.3-5.3,0.8-9.9,2.7-14.2c2.9-6.4,7.9-11.4,14.2-14.4c5.1-2.4,8.9-2.9,13-3c5.2-0.1,9.8,1.5,12.7,3.1c1.5,0.8,2.9,1.9,2.9,1.9
			l1.8,1.4l-5.9,3.3c0,0,20.2,6.4,20.2,6.4l0,0C132,54.7,135.1,54,138.4,53.3L138.4,53.3z"/>
	</g>
	<g id="TM_-_Grouped_Paths_1_">
		<path id="T_2_" class="st0" d="M163.2,138.9v0.4h-0.6v1.7h-0.5v-1.7h-0.6v-0.4H163.2z"/>
		<path id="M_1_" class="st0" d="M164,138.9c0,0.1,0.1,0.1,0.1,0.2c0,0.1,0.1,0.2,0.1,0.3c0,0.1,0.1,0.2,0.2,0.3
			c0,0.1,0.1,0.2,0.1,0.3c0-0.1,0.1-0.2,0.1-0.3c0-0.1,0.1-0.2,0.2-0.3c0-0.1,0.1-0.2,0.1-0.3c0-0.1,0.1-0.2,0.1-0.2h0.4
			c0,0.1,0,0.3,0.1,0.5c0,0.2,0,0.3,0,0.5c0,0.2,0,0.4,0,0.5c0,0.2,0,0.4,0,0.5h-0.5c0-0.2,0-0.4,0-0.7s0-0.5,0-0.7
			c0,0.1-0.1,0.2-0.1,0.3s-0.1,0.2-0.1,0.3c0,0.1-0.1,0.2-0.1,0.3c0,0.1-0.1,0.2-0.1,0.2h-0.3c0-0.1-0.1-0.1-0.1-0.2
			c0-0.1-0.1-0.2-0.1-0.3c0-0.1-0.1-0.2-0.1-0.3c0-0.1-0.1-0.2-0.1-0.3c0,0.2,0,0.5,0,0.7c0,0.2,0,0.5,0,0.7h-0.5c0-0.2,0-0.3,0-0.5
			c0-0.2,0-0.4,0-0.5s0-0.4,0-0.5c0-0.2,0-0.3,0.1-0.5H164z"/>
	</g>
</g>
</svg>
