<?xml version="1.0" encoding="utf-8"?>
<!-- Generator: Adobe Illustrator 26.1.0, SVG Export Plug-In . SVG Version: 6.00 Build 0)  -->
<svg version="1.1" id="Layer_1" xmlns="http://www.w3.org/2000/svg" xmlns:xlink="http://www.w3.org/1999/xlink" x="0px" y="0px"
	 viewBox="0 0 2000 500" style="enable-background:new 0 0 2000 500;" xml:space="preserve">
<style type="text/css">
	.st0{fill:#FFFFFF;}
	.st1{fill:#FB6A26;}
</style>
<g id="Ionburst_Cloud__x28_TM_x29__-_Grouped_Paths">
	<g id="Ionburst_Cloud_-_Grouped_Paths">
		<g id="Ionburst_-_Text_1_">
			<g id="Ionburst_-_Grouped_Paths">
				<g id="Ionburst_-_Individual_Paths">
					<path id="I" class="st0" d="M87.9,28.6v12.1l-3.1,3.1V25.6L87.9,28.6z"/>
					<path id="O" class="st1" d="M110.5,34.7c0,2.6-0.9,4.7-2.8,6.5c-1.8,1.8-4,2.7-6.6,2.7s-4.8-0.9-6.6-2.7
						c-1.8-1.8-2.7-3.9-2.7-6.5c0-2.5,0.9-4.7,2.8-6.5c1.8-1.8,4-2.7,6.6-2.7c2.6,0,4.8,0.9,6.6,2.7
						C109.6,30.1,110.5,32.2,110.5,34.7z M107.4,34.7c0-1.6-0.6-3.2-1.8-4.3c-1.1-1.2-2.7-1.8-4.4-1.8c-3.4,0-6.2,2.7-6.2,6
						c0,0,0,0,0,0c0,3.3,2.7,6.1,6.1,6.1c0,0,0.1,0,0.1,0c1.7,0,3.2-0.6,4.4-1.8C106.7,37.9,107.4,36.3,107.4,34.7L107.4,34.7z"/>
					<path id="N" class="st0" d="M129.9,25.6v18.3l-15.6-13.6v-4.6l12.4,10.9V25.6H129.9z"/>
					<path id="B" class="st0" d="M147.7,34.7c1.6,1.5,2.1,3.9,1.2,5.9c-0.6,1.3-1.6,2.3-2.9,2.9c-0.7,0.3-1.4,0.4-2.1,0.4h-7v-3.1h7
						c0.3,0,0.6-0.1,0.9-0.2c0.6-0.2,1-0.7,1.3-1.2c0.2-0.6,0.2-1.2,0-1.7c-0.1-0.3-0.3-0.5-0.5-0.7c-0.2-0.2-0.5-0.4-0.7-0.5
						c-0.3-0.1-0.6-0.2-0.9-0.2h-10.1v-3h10.1c0.3,0,0.6-0.1,0.9-0.2c0.3-0.1,0.5-0.3,0.8-0.5c0.2-0.2,0.4-0.5,0.5-0.7
						c0.1-0.3,0.2-0.6,0.2-0.9c0-0.3-0.1-0.6-0.2-0.9c-0.2-0.6-0.7-1-1.3-1.2c-0.3-0.1-0.6-0.2-0.9-0.2h-7l-3.1-3.1h10.1
						c0.7,0,1.4,0.1,2.1,0.4c1.3,0.5,2.4,1.6,2.9,2.9c0.3,0.6,0.4,1.4,0.4,2.1C149.4,32.3,148.8,33.7,147.7,34.7z"/>
					<path id="U" class="st1" d="M165.7,36.2h3.1c0,2-0.8,4-2.3,5.4c-1.5,1.4-3.4,2.2-5.5,2.2c-2.1,0-3.9-0.7-5.5-2.2
						c-1.5-1.4-2.3-3.4-2.3-5.4V25.6h3.1v10.7c0,2.5,2.1,4.5,4.6,4.6c0,0,0,0,0,0c1.2,0,2.4-0.5,3.3-1.3
						C165.2,38.6,165.7,37.4,165.7,36.2L165.7,36.2z"/>
					<path id="R" class="st1" d="M179.6,37.3l3.8,6.6h-3.6l-5.4-9.2l2.8,0c0.8,0,1.6-0.3,2.2-0.9c0.6-0.6,0.9-1.4,0.9-2.2
						c0-0.8-0.3-1.6-0.9-2.1c-0.6-0.6-1.4-0.9-2.2-0.9h-6.4l-1.8-3.1h8.2c1.7,0,3.2,0.6,4.4,1.8c1.2,1.1,1.9,2.7,1.8,4.3
						c0,1.2-0.4,2.4-1.1,3.4C181.6,36.1,180.7,36.8,179.6,37.3z"/>
					<path id="S" class="st1" d="M202.8,38.5c0,1.4-0.6,2.8-1.6,3.8c-1,1-2.4,1.6-3.8,1.6v-3.1c0.3,0,0.6-0.1,0.9-0.2
						c0.3-0.1,0.5-0.3,0.8-0.5c0.2-0.2,0.4-0.5,0.5-0.7c0.1-0.3,0.2-0.6,0.2-0.9c0-0.6-0.3-1.2-0.7-1.6c-0.4-0.4-1-0.7-1.6-0.7h-4.7
						c-1.5,0-2.8-0.5-3.8-1.6c-1-1-1.6-2.4-1.6-3.8c0-1.4,0.6-2.8,1.6-3.7c1-1,2.4-1.6,3.8-1.6v3.1c-0.3,0-0.6,0.1-0.9,0.2
						c-0.3,0.1-0.5,0.3-0.8,0.5c-0.2,0.2-0.4,0.5-0.5,0.7c-0.1,0.3-0.2,0.6-0.2,0.9c0,0.6,0.2,1.2,0.7,1.6c0.4,0.5,1,0.7,1.7,0.7
						h4.7C200.4,33.2,202.8,35.6,202.8,38.5z"/>
					<path id="T" class="st0" d="M216.1,25.6v3.1h-6.2v15.2h-3.1V25.6H216.1z"/>
				</g>
			</g>
		</g>
		<g id="Cloud_-_Text_1_">
			<path id="C" class="st0" d="M228.6,32.3c-0.3,0.7-0.5,1.5-0.5,2.4s0.2,1.6,0.5,2.4c0.3,0.7,0.8,1.4,1.3,1.9
				c0.6,0.6,1.2,1,1.9,1.3c0.7,0.3,1.5,0.5,2.4,0.5l3.5,2.3c-1.1,0.5-2.3,0.7-3.5,0.7c-1.3,0-2.5-0.2-3.5-0.7
				c-1.1-0.5-2.1-1.1-2.9-2c-0.8-0.8-1.5-1.8-2-2.9c-0.5-1.1-0.7-2.3-0.7-3.5c0-1.3,0.2-2.5,0.7-3.5c0.5-1.1,1.1-2.1,2-2.9
				c0.8-0.8,1.8-1.5,2.9-2c1.1-0.5,2.3-0.7,3.5-0.7c1.3,0,2.5,0.2,3.5,0.7c1.1,0.5,2.1,1.1,2.9,2l-2.2,2.1c-1.2-1.2-2.7-1.8-4.3-1.8
				c-0.8,0-1.6,0.2-2.4,0.5c-0.7,0.3-1.4,0.7-1.9,1.3C229.4,30.9,229,31.6,228.6,32.3z"/>
			<path id="L" class="st0" d="M247.5,36.6l-3,3.1V25.5h3V36.6z M256.7,40.8v3.1h-12.2l3-3.1H256.7z"/>
			<path id="O_1_" class="st0" d="M278.7,34.7c0,2.6-0.9,4.7-2.7,6.4c-1.8,1.8-3.9,2.7-6.4,2.7c-2.5,0-4.7-0.9-6.4-2.7
				c-1.8-1.8-2.7-3.9-2.7-6.4s0.9-4.7,2.7-6.4c1.8-1.8,3.9-2.7,6.4-2.7c2.5,0,4.7,0.9,6.4,2.7C277.8,30,278.7,32.2,278.7,34.7z
				 M275.6,34.7c0-1.7-0.6-3.1-1.8-4.3c-1.2-1.2-2.6-1.8-4.3-1.8s-3.1,0.6-4.3,1.8c-1.2,1.2-1.8,2.6-1.8,4.3c0,1.7,0.6,3.1,1.8,4.3
				c1.2,1.2,2.7,1.8,4.3,1.8c1.7,0,3.1-0.6,4.3-1.8C275,37.8,275.6,36.3,275.6,34.7z"/>
			<path id="U_1_" class="st0" d="M294.7,36.2h3.1c0,2.1-0.7,3.9-2.2,5.4c-1.5,1.5-3.3,2.2-5.4,2.2c-2.1,0-3.9-0.7-5.4-2.2
				c-1.5-1.5-2.2-3.3-2.2-5.4V25.5h3v10.7c0,1.3,0.4,2.3,1.3,3.2c0.9,0.9,2,1.3,3.2,1.3c1.3,0,2.3-0.5,3.2-1.3
				C294.2,38.5,294.7,37.4,294.7,36.2L294.7,36.2z"/>
			<path id="D" class="st0" d="M316.7,34.7c0,1.3-0.2,2.4-0.7,3.5c-0.5,1.1-1.1,2.1-2,2.9c-0.8,0.8-1.8,1.5-2.9,2
				c-1.1,0.5-2.3,0.7-3.5,0.7h-6.1l3-3.1h3.1c0.8,0,1.6-0.2,2.4-0.5c0.7-0.3,1.4-0.8,1.9-1.3c0.6-0.6,1-1.2,1.3-1.9
				c0.3-0.7,0.5-1.5,0.5-2.3c0-0.8-0.2-1.6-0.5-2.3c-0.3-0.7-0.8-1.4-1.3-1.9c-0.6-0.6-1.2-1-1.9-1.3c-0.7-0.3-1.5-0.5-2.3-0.5h-3.1
				l-3-3.1h6.1c1.2,0,2.4,0.2,3.5,0.7c1.1,0.5,2.1,1.1,2.9,2c0.8,0.8,1.5,1.8,2,2.9C316.5,32.3,316.7,33.4,316.7,34.7z"/>
		</g>
	</g>
	<g id="TM_-_Grouped_Paths">
		<path id="T_1_" class="st0" d="M318.7,25.6V26H318v2h-0.6v-2h-0.7v-0.5H318.7z"/>
		<path id="M" class="st0" d="M319.7,25.6c0,0.1,0.1,0.2,0.1,0.3c0.1,0.1,0.1,0.2,0.2,0.4c0.1,0.1,0.1,0.3,0.2,0.4
			c0.1,0.1,0.1,0.3,0.2,0.4c0.1-0.1,0.1-0.3,0.2-0.4s0.1-0.3,0.2-0.4c0.1-0.1,0.1-0.3,0.2-0.4c0.1-0.1,0.1-0.2,0.1-0.3h0.5
			c0,0.2,0,0.3,0.1,0.6c0,0.2,0,0.4,0.1,0.6s0,0.4,0,0.7c0,0.2,0,0.4,0,0.6h-0.5c0-0.2,0-0.5,0-0.8c0-0.3,0-0.6-0.1-0.9
			c0,0.1-0.1,0.2-0.1,0.3c-0.1,0.1-0.1,0.2-0.2,0.4c-0.1,0.1-0.1,0.2-0.1,0.3c0,0.1-0.1,0.2-0.1,0.3h-0.4c0-0.1-0.1-0.2-0.1-0.3
			s-0.1-0.2-0.1-0.3c0-0.1-0.1-0.2-0.2-0.4c-0.1-0.1-0.1-0.2-0.1-0.3c0,0.3,0,0.6-0.1,0.9c0,0.3,0,0.5,0,0.8H319c0-0.2,0-0.4,0-0.6
			c0-0.2,0-0.4,0-0.7c0-0.2,0-0.4,0.1-0.6c0-0.2,0-0.4,0.1-0.6C319.2,25.6,319.7,25.6,319.7,25.6z"/>
	</g>
</g>
</svg>
