<?xml version="1.0" encoding="UTF-8" standalone="no"?>
<svg
   xmlns:dc="http://purl.org/dc/elements/1.1/"
   xmlns:cc="http://creativecommons.org/ns#"
   xmlns:rdf="http://www.w3.org/1999/02/22-rdf-syntax-ns#"
   xmlns:svg="http://www.w3.org/2000/svg"
   xmlns="http://www.w3.org/2000/svg"
   xmlns:sodipodi="http://sodipodi.sourceforge.net/DTD/sodipodi-0.dtd"
   xmlns:inkscape="http://www.inkscape.org/namespaces/inkscape"
   width="348px"
   height="210px"
   viewBox="0 0 348 210"
   version="1.1"
   id="svg124"
   sodipodi:docname="notFound.svg"
   inkscape:version="1.0.1 (3bc2e813f5, 2020-09-07)">
  <metadata
     id="metadata128">
    <rdf:RDF>
      <cc:Work
         rdf:about="">
        <dc:format>image/svg+xml</dc:format>
        <dc:type
           rdf:resource="http://purl.org/dc/dcmitype/StillImage" />
        <dc:title>27A08916-26BA-4E40-BE07-5F49802F2EFC</dc:title>
      </cc:Work>
    </rdf:RDF>
  </metadata>
  <sodipodi:namedview
     pagecolor="#ffffff"
     bordercolor="#666666"
     borderopacity="1"
     objecttolerance="10"
     gridtolerance="10"
     guidetolerance="10"
     inkscape:pageopacity="0"
     inkscape:pageshadow="2"
     inkscape:window-width="1920"
     inkscape:window-height="1080"
     id="namedview126"
     showgrid="false"
     inkscape:zoom="0.83117816"
     inkscape:cx="-34.146598"
     inkscape:cy="-144.04542"
     inkscape:window-x="1920"
     inkscape:window-y="0"
     inkscape:window-maximized="0"
     inkscape:current-layer="svg124" />
  <!-- Generator: sketchtool 53.1 (72631) - https://sketchapp.com -->
  <title
     id="title2">27A08916-26BA-4E40-BE07-5F49802F2EFC</title>
  <desc
     id="desc4">Created with sketchtool.</desc>
  <defs
     id="defs50">
    <linearGradient
       x1="41.8088067%"
       y1="202.924064%"
       x2="57.7028735%"
       y2="-81.3762312%"
       id="linearGradient-1">
      <stop
         stop-color="#EDEDF0"
         offset="29.11%"
         id="stop6" />
      <stop
         stop-color="#D9E4EF"
         offset="32.86%"
         id="stop8" />
      <stop
         stop-color="#A5CCEE"
         offset="40.56%"
         id="stop10" />
      <stop
         stop-color="#53A7EC"
         offset="51.45%"
         id="stop12" />
      <stop
         stop-color="#47A1EB"
         offset="52.89%"
         id="stop14" />
      <stop
         stop-color="#83219D"
         offset="71.86%"
         id="stop16" />
    </linearGradient>
    <linearGradient
       x1="-28.1787365%"
       y1="-47.1973036%"
       x2="84.4756344%"
       y2="96.7280729%"
       id="linearGradient-2">
      <stop
         stop-color="#FA357F"
         offset="0%"
         id="stop19" />
      <stop
         stop-color="#7878FF"
         offset="99.91%"
         id="stop21" />
    </linearGradient>
    <linearGradient
       x1="20.1959513%"
       y1="50.3857706%"
       x2="169.064404%"
       y2="48.6797451%"
       id="linearGradient-3">
      <stop
         stop-color="#FFF361"
         offset="0%"
         id="stop24" />
      <stop
         stop-color="#FFA80A"
         offset="100%"
         id="stop26" />
    </linearGradient>
    <linearGradient
       x1="7.14415651%"
       y1="-13.348307%"
       x2="84.3260208%"
       y2="120.031607%"
       id="linearGradient-4">
      <stop
         stop-color="#FF5162"
         offset="0%"
         id="stop29" />
      <stop
         stop-color="#83219D"
         offset="100%"
         id="stop31" />
    </linearGradient>
    <linearGradient
       x1="34.0909977%"
       y1="25.5724875%"
       x2="59.4809257%"
       y2="63.1135354%"
       id="linearGradient-5">
      <stop
         stop-color="#FFD943"
         offset="0%"
         id="stop34" />
      <stop
         stop-color="#FFA80A"
         offset="100%"
         id="stop36" />
    </linearGradient>
    <linearGradient
       x1="21.6627754%"
       y1="-7.19126071%"
       x2="65.1350234%"
       y2="106.402717%"
       id="linearGradient-6">
      <stop
         stop-color="#FF8748"
         offset="0%"
         id="stop39" />
      <stop
         stop-color="#FE7852"
         offset="13.28%"
         id="stop41" />
      <stop
         stop-color="#FC546A"
         offset="50.49%"
         id="stop43" />
      <stop
         stop-color="#FA3D79"
         offset="80.73%"
         id="stop45" />
      <stop
         stop-color="#FA357F"
         offset="100%"
         id="stop47" />
    </linearGradient>
  </defs>
  <g
     id="Page-1"
     stroke="none"
     stroke-width="1"
     fill="none"
     fill-rule="evenodd">
    <g
       id="Send_Expired-Link"
       transform="translate(-546.000000, -349.000000)"
       fill-rule="nonzero">
      <g
         id="firefox-send_illustrations-01"
         transform="translate(546.014493, 349.000000)">
        <g
           id="Group"
           transform="translate(0.000000, 41.705515)"
           fill="#EDEDF0"
           opacity="0.5">
          <g
             transform="translate(31.196450, 119.702206)"
             id="g62">
            <g
               transform="translate(21.701878, 5.425470)"
               id="Path">
              <path
                 d="M1.62764089,3.36379116 L94.6066265,3.36379116 C95.3526286,3.36379116 95.9629939,2.75342583 95.9629939,2.00742376 C95.9629939,1.26142169 95.3526286,0.651056354 94.6066265,0.651056354 L1.62764089,0.651056354 C0.881638813,0.651056354 0.271273481,1.26142169 0.271273481,2.00742376 C0.271273481,2.75342583 0.881638813,3.36379116 1.62764089,3.36379116 Z"
                 id="path52" />
            </g>
            <g
               transform="translate(79.683802, 0.000000)"
               id="g57">
              <path
                 d="M0.735221199,1.89891437 L24.0647406,1.89891437 C24.4445234,1.89891437 24.7429243,1.60051354 24.7429243,1.22073066 C24.7429243,0.840947791 24.4445234,0.542546962 24.0647406,0.542546962 L0.735221199,0.542546962 C0.355438325,0.542546962 0.0570374962,0.840947791 0.0570374962,1.22073066 C0.0570374962,1.60051354 0.355438325,1.89891437 0.735221199,1.89891437 Z"
                 id="path55" />
            </g>
            <g
               transform="translate(0.000000, 13.221799)"
               id="Shape">
              <path
                 d="M0.542546962,0.938676309 C0.542546962,0.558893436 0.840947791,0.260492607 1.22073066,0.260492607 L5.28983288,0.260492607 C5.66961575,0.260492607 5.96801658,0.558893436 5.96801658,0.938676309 C5.96801658,1.31845918 5.66961575,1.61686001 5.28983288,1.61686001 L1.22073066,1.61686001 C0.840947791,1.61686001 0.542546962,1.31845918 0.542546962,0.938676309 Z M15.4625884,0.938676309 C15.4625884,0.558893436 15.7609892,0.260492607 16.1407721,0.260492607 L32.417181,0.260492607 C32.7969639,0.260492607 33.0953647,0.558893436 33.0953647,0.938676309 C33.0953647,1.31845918 32.7969639,1.61686001 32.417181,1.61686001 L16.1407721,1.61686001 C15.7609892,1.61686001 15.4625884,1.31845918 15.4625884,0.938676309 Z M43.9463039,0.938676309 C43.9463039,0.558893436 44.2447047,0.260492607 44.6244876,0.260492607 L45.980855,0.260492607 C46.3606379,0.260492607 46.6590387,0.558893436 46.6590387,0.938676309 C46.6590387,1.31845918 46.3606379,1.61686001 45.980855,1.61686001 L44.6244876,1.61686001 C44.2447047,1.61686001 43.9463039,1.31845918 43.9463039,0.938676309 Z M50.7281409,0.938676309 C50.7281409,0.558893436 51.0265418,0.260492607 51.4063246,0.260492607 L55.4754269,0.260492607 C55.8552097,0.260492607 56.1536106,0.558893436 56.1536106,0.938676309 C56.1536106,1.31845918 55.8552097,1.61686001 55.4754269,1.61686001 L51.4063246,1.61686001 C51.0265418,1.61686001 50.7281409,1.31845918 50.7281409,0.938676309 Z M65.6481824,0.938676309 C65.6481824,0.558893436 65.9465832,0.260492607 66.3263661,0.260492607 L82.602775,0.260492607 C82.9825578,0.260492607 83.2809587,0.558893436 83.2809587,0.938676309 C83.2809587,1.31845918 82.9825578,1.61686001 82.602775,1.61686001 L66.3263661,1.61686001 C65.9465832,1.61686001 65.6481824,1.31845918 65.6481824,0.938676309 Z"
                 id="path59" />
            </g>
          </g>
          <g
             transform="translate(128.513029, 73.585715)"
             id="g76">
            <g
               transform="translate(26.112855, 5.425470)"
               id="g66">
              <path
                 d="M1.831096,3.26884545 L151.95384,3.26884545 C152.699842,3.26884545 153.310208,2.65848011 153.310208,1.91247804 C153.310208,1.16647597 152.699842,0.556110636 151.95384,0.556110636 L1.831096,0.556110636 C1.08509392,0.556110636 0.474728592,1.16647597 0.474728592,1.91247804 C0.474728592,2.65848011 1.08509392,3.26884545 1.831096,3.26884545 Z"
                 id="path64" />
            </g>
            <g
               transform="translate(47.472859, 0.000000)"
               id="g70">
              <path
                 d="M0.748784873,1.91247804 L38.401544,1.91247804 C38.7813269,1.91247804 39.0797277,1.61407721 39.0797277,1.23429434 C39.0797277,0.854511465 38.7813269,0.556110636 38.401544,0.556110636 L0.748784873,0.556110636 C0.369001999,0.556110636 0.0706011703,0.854511465 0.0706011703,1.23429434 C0.0706011703,1.61407721 0.382565673,1.91247804 0.748784873,1.91247804 Z"
                 id="path68" />
            </g>
            <g
               transform="translate(0.000000, 13.221799)"
               id="g74">
              <path
                 d="M0.233365259,0.708093851 C0.233365259,0.328310977 0.531766088,0.0299101482 0.911548961,0.0299101482 L17.1879578,0.0299101482 C17.5677407,0.0299101482 17.8661415,0.328310977 17.8661415,0.708093851 C17.8661415,1.08787672 17.5677407,1.38627755 17.1879578,1.38627755 L0.911548961,1.38627755 C0.531766088,1.38627755 0.233365259,1.08787672 0.233365259,0.708093851 Z M27.3607134,0.708093851 C27.3607134,0.328310977 27.6591142,0.0299101482 28.0388971,0.0299101482 L32.1079993,0.0299101482 C32.4877821,0.0299101482 32.786183,0.328310977 32.786183,0.708093851 C32.786183,1.08787672 32.4877821,1.38627755 32.1079993,1.38627755 L28.0388971,1.38627755 C27.6591142,1.38627755 27.3607134,1.08787672 27.3607134,0.708093851 Z M36.8552852,0.708093851 C36.8552852,0.328310977 37.153686,0.0299101482 37.5334689,0.0299101482 L38.8898363,0.0299101482 C39.2696192,0.0299101482 39.56802,0.328310977 39.56802,0.708093851 C39.56802,1.08787672 39.2696192,1.38627755 38.8898363,1.38627755 L37.5334689,1.38627755 C37.153686,1.38627755 36.8552852,1.08787672 36.8552852,0.708093851 Z M50.4189592,0.708093851 C50.4189592,0.328310977 50.7173601,0.0299101482 51.0971429,0.0299101482 L67.3735518,0.0299101482 C67.7533347,0.0299101482 68.0517355,0.328310977 68.0517355,0.708093851 C68.0517355,1.08787672 67.7533347,1.38627755 67.3735518,1.38627755 L51.0971429,1.38627755 C50.7173601,1.38627755 50.4189592,1.08787672 50.4189592,0.708093851 Z M77.5463073,0.708093851 C77.5463073,0.328310977 77.8447082,0.0299101482 78.224491,0.0299101482 L82.2935933,0.0299101482 C82.6733761,0.0299101482 82.971777,0.328310977 82.971777,0.708093851 C82.971777,1.08787672 82.6733761,1.38627755 82.2935933,1.38627755 L78.224491,1.38627755 C77.8447082,1.38627755 77.5463073,1.08787672 77.5463073,0.708093851 Z M87.0408792,0.708093851 C87.0408792,0.328310977 87.33928,0.0299101482 87.7190629,0.0299101482 L89.0754303,0.0299101482 C89.4552132,0.0299101482 89.753614,0.328310977 89.753614,0.708093851 C89.753614,1.08787672 89.4552132,1.38627755 89.0754303,1.38627755 L87.7190629,1.38627755 C87.33928,1.38627755 87.0408792,1.08787672 87.0408792,0.708093851 Z M100.604553,0.708093851 C100.604553,0.328310977 100.902954,0.0299101482 101.282737,0.0299101482 L117.559146,0.0299101482 C117.938929,0.0299101482 118.237329,0.328310977 118.237329,0.708093851 C118.237329,1.08787672 117.938929,1.38627755 117.559146,1.38627755 L101.282737,1.38627755 C100.902954,1.38627755 100.604553,1.08787672 100.604553,0.708093851 Z M127.731901,0.708093851 C127.731901,0.328310977 128.030302,0.0299101482 128.410085,0.0299101482 L132.479187,0.0299101482 C132.85897,0.0299101482 133.157371,0.328310977 133.157371,0.708093851 C133.157371,1.08787672 132.85897,1.38627755 132.479187,1.38627755 L128.410085,1.38627755 C128.030302,1.38627755 127.731901,1.08787672 127.731901,0.708093851 Z M137.226473,0.708093851 C137.226473,0.328310977 137.524874,0.0299101482 137.904657,0.0299101482 L139.261024,0.0299101482 C139.640807,0.0299101482 139.939208,0.328310977 139.939208,0.708093851 C139.939208,1.08787672 139.640807,1.38627755 139.261024,1.38627755 L137.904657,1.38627755 C137.524874,1.38627755 137.226473,1.08787672 137.226473,0.708093851 Z M150.790147,0.708093851 C150.790147,0.328310977 151.088548,0.0299101482 151.468331,0.0299101482 L167.74474,0.0299101482 C168.124523,0.0299101482 168.422923,0.328310977 168.422923,0.708093851 C168.422923,1.08787672 168.124523,1.38627755 167.74474,1.38627755 L151.468331,1.38627755 C151.088548,1.38627755 150.790147,1.08787672 150.790147,0.708093851 Z M177.917495,0.708093851 C177.917495,0.328310977 178.215896,0.0299101482 178.595679,0.0299101482 L182.664781,0.0299101482 C183.044564,0.0299101482 183.342965,0.328310977 183.342965,0.708093851 C183.342965,1.08787672 183.044564,1.38627755 182.664781,1.38627755 L178.595679,1.38627755 C178.215896,1.38627755 177.917495,1.08787672 177.917495,0.708093851 Z M187.412067,0.708093851 C187.412067,0.328310977 187.710468,0.0299101482 188.090251,0.0299101482 L189.446618,0.0299101482 C189.826401,0.0299101482 190.124802,0.328310977 190.124802,0.708093851 C190.124802,1.08787672 189.826401,1.38627755 189.446618,1.38627755 L188.090251,1.38627755 C187.710468,1.38627755 187.412067,1.08787672 187.412067,0.708093851 Z M200.975741,0.708093851 C200.975741,0.328310977 201.274142,0.0299101482 201.653925,0.0299101482 L217.930334,0.0299101482 C218.310117,0.0299101482 218.608517,0.328310977 218.608517,0.708093851 C218.608517,1.08787672 218.310117,1.38627755 217.930334,1.38627755 L201.653925,1.38627755 C201.274142,1.38627755 200.975741,1.08787672 200.975741,0.708093851 Z"
                 id="path72" />
            </g>
          </g>
          <g
             id="g88">
            <path
               d="M2.21087887,33.3287299 L36.6897383,33.3287299 C36.6897383,33.3287299 25.9066174,9.21251748 48.8020992,6.09287245 C69.2289923,3.31231927 77.2993784,24.3088867 77.2993784,24.3088867 C77.2993784,24.3088867 79.7272761,12.1965258 91.8667643,14.515914 C103.843489,16.7946113 112.687004,36.0685921 112.687004,36.0685921 L142.716978,36.0685921"
               id="path78" />
            <g
               transform="translate(1.356367, 0.000000)"
               id="g82">
              <path
                 d="M141.957413,30.371849 L133.08677,30.371849 C132.639169,30.371849 132.286513,30.0191935 132.286513,29.5715922 C132.286513,29.123991 132.639169,28.7713355 133.08677,28.7713355 L141.957413,28.7713355 C142.405014,28.7713355 142.757669,29.123991 142.757669,29.5715922 C142.757669,30.0191935 142.405014,30.371849 141.957413,30.371849 Z M118.722839,30.371849 L117.122325,30.371849 C116.674724,30.371849 116.322069,30.0191935 116.322069,29.5715922 C116.322069,29.123991 116.674724,28.7713355 117.122325,28.7713355 L118.722839,28.7713355 C119.17044,28.7713355 119.523096,29.123991 119.523096,29.5715922 C119.523096,30.0191935 119.156877,30.371849 118.722839,30.371849 Z M35.9166089,29.4088281 L33.3530745,29.4088281 C32.9054732,29.4088281 32.5528177,29.0561726 32.5528177,28.6085714 C32.5528177,28.1609701 32.9054732,27.8083146 33.3530745,27.8083146 L34.7365692,27.8083146 C34.6280598,27.5234774 34.5059868,27.1708219 34.37035,26.7774754 C34.2347133,26.3570015 34.4517321,25.9094002 34.872206,25.7601998 C35.2926799,25.6245631 35.7402811,25.8415819 35.8894815,26.2620558 C36.3099554,27.4963501 36.6490473,28.2559158 36.6490473,28.2694795 C36.7575567,28.5136257 36.7304293,28.7984628 36.5947926,29.0290453 C36.4455922,29.2731914 36.1878824,29.4088281 35.9166089,29.4088281 Z M20.5896572,29.4088281 L1.43774945,29.4088281 C0.990148206,29.4088281 0.63749268,29.0561726 0.63749268,28.6085714 C0.63749268,28.1609701 0.990148206,27.8083146 1.43774945,27.8083146 L20.5896572,27.8083146 C21.0372585,27.8083146 21.389914,28.1609701 21.389914,28.6085714 C21.389914,29.0561726 21.0236948,29.4088281 20.5896572,29.4088281 Z M111.371328,29.3274461 C111.08649,29.3274461 110.815217,29.1782457 110.67958,28.9205359 C110.164161,28.0117697 109.323213,26.5740203 108.197428,24.8921247 C107.953282,24.5259055 108.048227,24.0240495 108.414447,23.7799034 C108.780666,23.5357573 109.282522,23.630703 109.526668,23.9969222 C110.67958,25.7195088 111.547655,27.1979493 112.076639,28.1338428 C112.293657,28.5136257 112.158021,29.0019179 111.764674,29.2189367 C111.629037,29.2867551 111.493401,29.3274461 111.371328,29.3274461 Z M33.6379116,21.1214233 C33.2445651,21.1214233 32.9054732,20.8365861 32.8512185,20.4296759 C32.7698365,19.9006926 32.7155818,19.344582 32.6748908,18.7884714 C32.6341998,18.3544338 32.9732916,17.9610872 33.4073292,17.9339599 C33.8684941,17.9068325 34.2347133,18.218797 34.2618406,18.6663983 C34.3025317,19.1953816 34.3567864,19.7108012 34.4381684,20.2126571 C34.5059868,20.6466947 34.1940223,21.0536049 33.7599847,21.1078596 C33.7192937,21.1214233 33.6786027,21.1214233 33.6379116,21.1214233 Z M75.2105726,17.6084317 C74.9257354,17.6084317 74.654462,17.4592313 74.5052616,17.1879578 C74.2746791,16.7674839 74.0169693,16.306319 73.7321321,15.8315904 C73.5015497,15.4518075 73.6236227,14.9635153 74.0034056,14.7329328 C74.3831885,14.5023504 74.8714808,14.6244234 75.1020632,15.0042063 C75.400464,15.5060622 75.6717375,15.9807908 75.9158837,16.4283921 C76.1193388,16.8217386 75.983702,17.2964672 75.5903555,17.513486 C75.4682824,17.5813044 75.3326457,17.6084317 75.2105726,17.6084317 Z M100.547516,15.5738806 C100.357624,15.5738806 100.181297,15.5060622 100.032096,15.3839892 C96.9802695,12.7662001 93.9420065,11.1521229 90.9715618,10.5824486 C88.0553719,10.0263379 85.4782739,10.3111751 83.3352134,11.4098327 C82.9418668,11.6132878 82.4671382,11.4505237 82.2636831,11.0707408 C82.060228,10.6773943 82.2094284,10.2026657 82.602775,9.99921057 C85.0578,8.72422521 88.0011172,8.39869704 91.2699627,9.02262604 C94.5116808,9.64655505 97.8076536,11.3691417 101.076499,14.1768222 C101.415591,14.4616593 101.442718,14.9635153 101.157881,15.3026071 C100.981553,15.4789349 100.764535,15.5738806 100.547516,15.5738806 Z M70.6803055,11.0436135 C70.4632867,11.0436135 70.2327042,10.9486678 70.0835038,10.77234 C69.0391009,9.565173 67.913316,8.46651541 66.7604037,7.50349455 C66.4213118,7.21865739 66.3806208,6.71680145 66.665458,6.3777096 C66.9502951,6.03861775 67.452151,5.99792673 67.7912429,6.28276388 C69.0119736,7.30003944 70.1920132,8.46651541 71.2906708,9.72793709 C71.575508,10.0670289 71.5483806,10.5688849 71.2092888,10.853722 C71.0465247,10.9757951 70.8566332,11.0436135 70.6803055,11.0436135 Z M37.7748322,6.39127328 C37.5578134,6.39127328 37.3407947,6.29632756 37.1780306,6.13356347 C36.8796297,5.80803529 36.9067571,5.30617935 37.2322853,5.00777852 C39.782256,2.70195394 43.3766296,1.20994979 47.9204604,0.599584458 C50.7010136,0.219801585 53.4273121,0.260492607 56.0044101,0.708093851 C56.4384477,0.789475895 56.7232849,1.19638612 56.6554665,1.63042369 C56.5740845,2.06446126 56.1671742,2.36286208 55.7331367,2.28148004 C53.3188027,1.86100614 50.7552683,1.8338788 48.1374792,2.18653432 C43.9191766,2.76977231 40.6096401,4.11257604 38.3038155,6.20138184 C38.1546151,6.32345491 37.9647237,6.39127328 37.7748322,6.39127328 Z"
                 id="path80" />
            </g>
            <g
               transform="translate(0.000000, 32.894692)"
               id="g86">
              <path
                 d="M144.303928,3.6079373 L2.1973152,3.6079373 C1.31567638,3.6079373 0.596801658,2.88906257 0.596801658,2.00742376 C0.596801658,1.12578495 1.31567638,0.406910221 2.1973152,0.406910221 L144.303928,0.406910221 C145.185567,0.406910221 145.904442,1.12578495 145.904442,2.00742376 C145.904442,2.88906257 145.185567,3.6079373 144.303928,3.6079373 Z"
                 id="path84" />
            </g>
          </g>
          <g
             transform="translate(225.156989, 1.356367)"
             id="g100">
            <path
               d="M2.10236948,18.9919265 L21.349223,18.9919265 C21.349223,18.9919265 15.3269517,5.53676181 28.1039326,3.80061153 C39.4974188,2.25435269 44.0141223,13.9598034 44.0141223,13.9598034 C44.0141223,13.9598034 45.3704897,7.20509372 52.1523267,8.49364275 C58.839218,9.76862812 63.7763954,20.5246216 63.7763954,20.5246216 L80.5275328,20.5246216"
               id="path90" />
            <g
               transform="translate(1.356367, 0.000000)"
               id="g94">
              <path
                 d="M20.5489662,16.8353023 L1.32924006,16.8353023 C0.881638813,16.8353023 0.528983288,16.4826468 0.528983288,16.0350455 C0.528983288,15.5874443 0.881638813,15.2347888 1.32924006,15.2347888 L20.5489662,15.2347888 C20.9965674,15.2347888 21.349223,15.5874443 21.349223,16.0350455 C21.349223,16.4826468 20.9965674,16.8353023 20.5489662,16.8353023 Z M79.7544034,16.5775925 L79.0084013,16.5775925 C78.5608001,16.5775925 78.2081446,16.224937 78.2081446,15.7773357 C78.2081446,15.3297345 78.5608001,14.977079 79.0084013,14.977079 L79.7544034,14.977079 C80.2020047,14.977079 80.5546602,15.3297345 80.5546602,15.7773357 C80.5546602,16.224937 80.2020047,16.5775925 79.7544034,16.5775925 Z M72.6063472,16.5775925 L67.8048066,16.5775925 C67.3572053,16.5775925 67.0045498,16.224937 67.0045498,15.7773357 C67.0045498,15.3297345 67.3572053,14.977079 67.8048066,14.977079 L72.6063472,14.977079 C73.0539484,14.977079 73.406604,15.3297345 73.406604,15.7773357 C73.406604,16.224937 73.0539484,16.5775925 72.6063472,16.5775925 Z M43.2545565,11.7896155 C42.9290284,11.7896155 42.6306275,11.5725968 42.5085545,11.2741959 L42.3864814,10.9893588 C42.2237173,10.6231396 42.3593541,10.189102 42.6984459,9.9856469 C43.444448,7.74764068 45.5468175,4.56017728 49.7379927,4.56017728 C50.307667,4.56017728 50.9180324,4.61443198 51.5419614,4.73650504 C53.929168,5.18410629 56.3299383,6.58116471 58.6900176,8.85986195 C59.0019821,9.17182646 59.0155458,9.6736824 58.7035813,9.9856469 C58.3916168,10.3111751 57.8897608,10.3111751 57.5777963,9.99921057 C55.4482995,7.93753212 53.3188027,6.68967411 51.2435606,6.29632756 C50.7145773,6.20138184 50.2127213,6.14712714 49.7379927,6.14712714 C45.1263436,6.14712714 44.0819407,10.9351041 44.0412496,11.1385592 C43.9598676,11.5319057 43.6343394,11.7896155 43.2545565,11.7896155 Z M20.9694401,4.64155932 C20.7795486,4.64155932 20.6032209,4.57374095 20.4540205,4.45166789 C20.1149286,4.16683073 20.0742376,3.66497479 20.3590747,3.32588294 C21.4170413,2.07802493 22.8954818,1.15569509 24.7537051,0.57245711 C25.174179,0.43682037 25.6217803,0.680966503 25.757417,1.1014404 C25.8930538,1.52191429 25.6489076,1.96951554 25.2284337,2.10515228 C23.6686112,2.59344454 22.4478806,3.35301029 21.5798054,4.35672217 C21.430605,4.54661361 21.2000225,4.64155932 20.9694401,4.64155932 Z M32.8919096,1.95595186 C32.8240912,1.95595186 32.7562728,1.94238819 32.6748908,1.92882452 C32.2001622,1.80675145 31.7118699,1.69824206 31.210014,1.63042369 C30.7759764,1.56260532 30.4640119,1.15569509 30.5318303,0.721657525 C30.5996487,0.287619955 31.0065589,0.00278280005 31.4405964,0.0434738222 C32.0102708,0.124855866 32.5663814,0.246928933 33.0953647,0.382565673 C33.5158386,0.50463874 33.7735484,0.938676309 33.665039,1.3591502 C33.5700933,1.71180573 33.2445651,1.95595186 32.8919096,1.95595186 Z"
                 id="path92" />
            </g>
            <g
               transform="translate(0.000000, 18.989144)"
               id="g98">
              <path
                 d="M81.7618272,3.21737355 L2.455025,3.21737355 C1.57338619,3.21737355 0.854511465,2.49849883 0.854511465,1.61686001 C0.854511465,0.735221199 1.57338619,0.0163464741 2.455025,0.0163464741 L81.7618272,0.0163464741 C82.643466,0.0163464741 83.3623407,0.735221199 83.3623407,1.61686001 C83.3623407,2.49849883 82.643466,3.21737355 81.7618272,3.21737355 Z"
                 id="path96" />
            </g>
          </g>
        </g>
      </g>
    </g>
  </g>
  <ellipse
     id="Oval"
     fill="#ededf0"
     opacity="0.5"
     cx="174.42477"
     cy="172.67894"
     rx="73.526253"
     ry="11.563125" />
  <path
     id="cloud-off"
     d="M 232.66609,50.155807 A 8.2118103,8.2118103 0 0 0 221.05286,38.54253 l -24.58739,24.587284 a 49.087021,49.087021 0 0 0 -82.69072,35.970548 c 0,1.448998 0.0696,2.914018 0.20861,4.384368 a 32.511588,32.511588 0 0 0 -16.633903,28.46635 27.562135,27.562135 0 0 0 5.298643,16.23286 22.799931,22.799931 0 0 0 4.2838,4.4793 l -7.176402,7.17673 a 8.2118072,8.2118072 0 1 0 11.613272,11.61322 z M 118.72657,140.86955 a 8.5946237,8.5946237 0 0 1 -2.68479,-2.19217 11.029135,11.029135 0 0 1 -2.26703,-6.7263 16.274355,16.274355 0 0 1 11.70415,-15.61263 l 4.92005,-1.48644 a 2.738162,2.738162 0 0 0 1.8737,-3.24418 l -1.16893,-5.00059 a 32.735029,32.735029 0 0 1 35.28314,-40.191861 31.860268,31.860268 0 0 1 18.36694,8.426592 z m 131.92616,-19.86871 a 40.800975,40.800975 0 0 1 -10.55455,27.3756 35.587128,35.587128 0 0 1 -25.2904,10.95024 h -71.10166 l 16.42536,-16.42536 h 54.6763 a 19.17354,19.17354 0 0 0 13.09966,-5.53393 24.393903,24.393903 0 0 0 6.31993,-16.36655 27.319807,27.319807 0 0 0 -25.05414,-27.140158 l 13.61114,-13.61313 a 43.833807,43.833807 0 0 1 27.86836,40.753288 z"
     style="fill:#45a1ff;fill-opacity:1;stroke-width:5.47512" />
</svg>
